<?xml version="1.0" encoding="UTF-8"?>
<svg version="1.1" xmlns="http://www.w3.org/2000/svg" width="522" height="501">
<path d="M0 0 C1.01037071 -0.00021904 1.01037071 -0.00021904 2.04115295 -0.0004425 C4.25956483 0.00025215 6.47789192 0.00802358 8.69628906 0.01586914 C10.23756871 0.01773491 11.77884894 0.01915806 13.32012939 0.02015686 C17.3708867 0.02396954 21.42160798 0.03378915 25.47235107 0.04486084 C29.60819003 0.05510183 33.74403482 0.05966024 37.87988281 0.06469727 C45.9905764 0.07541255 54.10124075 0.09247396 62.21191406 0.11352539 C62.21430242 0.90460253 62.21669077 1.69567966 62.2191515 2.51072884 C62.27843367 21.80983228 62.35406769 41.10880927 62.44762897 60.40777779 C62.49248627 69.74083447 62.53192384 79.07385385 62.55834961 88.40698242 C62.58141154 96.54710797 62.61490019 104.68711448 62.66061562 112.82714546 C62.68443793 117.13236146 62.70323838 121.43746036 62.70952797 125.74274063 C62.71562903 129.80576149 62.73580695 133.86848316 62.76618958 137.93139267 C62.77489018 139.4122687 62.77870921 140.89318396 62.77692223 142.37408447 C62.76235695 160.03458222 65.73938189 173.84602887 77.94628906 187.00805664 C87.24667533 195.65100181 98.55061714 200.13031205 111.17016602 200.31884766 C112.38668854 200.33877274 113.60321106 200.35869781 114.8565979 200.37922668 C116.22112703 200.39639587 117.5856597 200.41328539 118.95019531 200.42993164 C120.43240601 200.45093358 121.91461419 200.47211411 123.39682007 200.49345398 C128.43925595 200.56324516 133.48180829 200.62010463 138.52441406 200.67602539 C139.39838963 200.68607101 140.27236519 200.69611664 141.17282486 200.70646667 C181.80822985 201.17217679 222.44684137 201.28591115 263.08456022 201.3487224 C269.16696478 201.35880268 275.24931894 201.37648944 281.33169556 201.39724731 C288.85062888 201.42267324 296.36948835 201.436884 303.88846612 201.43736404 C307.79028736 201.43785143 311.69194783 201.44311485 315.59373093 201.46112633 C319.21612149 201.47762249 322.83824338 201.47979946 326.46065843 201.47110641 C328.39589806 201.4700139 330.33112892 201.48365528 332.26631641 201.49790287 C345.95945261 201.43267376 357.9494815 197.43133047 368.02441406 187.86352539 C379.85906202 175.18354544 382.82060667 160.85087687 382.7578125 143.95019531 C382.76656848 142.3719329 382.77706123 140.79367933 382.78913879 139.21543884 C382.81677194 134.97247036 382.82040855 130.72979476 382.81941891 126.48674941 C382.82256771 122.03710635 382.84822648 117.58759146 382.87139893 113.13801575 C382.91181273 104.73069966 382.93226509 96.32346084 382.94537282 87.91606265 C382.96129264 78.33667256 382.99972902 68.75741304 383.03996611 59.17809904 C383.12216475 39.489951 383.17638174 19.80180937 383.21191406 0.11352539 C385.45276175 0.09319683 387.69366278 0.07869289 389.93457031 0.06665039 C391.80640991 0.05359863 391.80640991 0.05359863 393.71606445 0.0402832 C404.78415906 0.27217289 412.03348931 5.45519086 419.46582031 13.10961914 C420.12976303 13.78017838 420.79370575 14.45073761 421.47776794 15.14161682 C423.58393894 17.27104024 425.67963574 19.4103989 427.77441406 21.55102539 C429.8744685 23.68630997 431.97671424 25.81936987 434.08177185 27.94972229 C435.38623083 29.27096442 436.68757876 30.595288 437.98524475 31.92320251 C440.77261463 34.75608949 443.55372433 37.44749157 446.65698242 39.93408203 C447.92167358 41.01290649 447.92167358 41.01290649 449.21191406 42.11352539 C449.21191406 42.77352539 449.21191406 43.43352539 449.21191406 44.11352539 C450.06124512 44.47607422 450.06124512 44.47607422 450.92773438 44.84594727 C453.66414146 46.36448356 455.54260745 48.1850442 457.75878906 50.39477539 C458.603125 51.2365332 459.44746094 52.07829102 460.31738281 52.94555664 C461.19007813 53.82598633 462.06277344 54.70641602 462.96191406 55.61352539 C463.85007812 56.49395508 464.73824219 57.37438477 465.65332031 58.28149414 C466.4925 59.12325195 467.33167969 59.96500977 468.19628906 60.83227539 C468.96682617 61.60506836 469.73736328 62.37786133 470.53125 63.17407227 C472.21191406 65.11352539 472.21191406 65.11352539 472.21191406 67.11352539 C472.87191406 67.11352539 473.53191406 67.11352539 474.21191406 67.11352539 C475.64941406 69.09008789 475.64941406 69.09008789 477.21191406 71.73852539 C477.72753906 72.59704102 478.24316406 73.45555664 478.77441406 74.34008789 C481.48934901 79.57814173 482.46215349 84.04239867 482.46918297 89.93306446 C482.47268904 90.59744527 482.47619512 91.26182608 482.47980744 91.94633964 C482.48910415 94.17043126 482.48420268 96.39426004 482.4793396 98.61836243 C482.48307673 100.22992563 482.48767851 101.84148703 482.49307024 103.45304555 C482.50530782 107.88015008 482.50503889 112.30717909 482.50268149 116.73429668 C482.50227352 121.50947096 482.51331059 126.28462096 482.52279663 131.05978394 C482.53941163 140.41465343 482.5449064 149.76949773 482.54602139 159.12438074 C482.5469716 166.72809309 482.55108054 174.33179711 482.55742264 181.93550682 C482.5750362 203.49144479 482.5842613 225.04736284 482.58276169 246.60330806 C482.58264182 248.34654557 482.58264182 248.34654557 482.58251953 250.125 C482.58243777 251.28857657 482.58235601 252.45215315 482.58227177 253.65098961 C482.58145878 272.51065333 482.60059953 291.37023719 482.62879626 310.22987781 C482.65751724 329.5928794 482.671337 348.95584204 482.66960871 368.31886548 C482.66894455 379.19052482 482.67444828 390.06210045 482.69596481 400.93374062 C482.71416622 410.1896911 482.71853246 419.44551992 482.70494597 428.70148055 C482.69841116 433.42361875 482.69831767 438.14552348 482.71565247 442.86763954 C482.73136545 447.19245252 482.72853776 451.51684655 482.7110842 455.8416492 C482.7080104 457.40420562 482.71166105 458.96679317 482.72280435 460.52931289 C482.79995517 472.11706762 481.34485305 480.60276233 473.25488281 489.26196289 C461.36425624 500.03855371 447.88899071 500.55582833 432.66470337 500.50120544 C430.77133855 500.50538152 428.87797624 500.51086054 426.98461854 500.51752526 C421.79700692 500.5319626 416.6095544 500.52774044 411.42193413 500.52035844 C405.82126759 500.51562486 400.22063537 500.52813832 394.61997986 500.53837585 C383.65372456 500.55556543 372.68752655 500.55640352 361.72126128 500.55116295 C352.80712253 500.54712032 343.8930007 500.54856593 334.97886276 500.55391121 C333.07525591 500.55503384 333.07525591 500.55503384 331.13319235 500.55617915 C328.55501346 500.55771064 325.97683458 500.55924899 323.3986557 500.56079412 C306.09038095 500.57062163 288.78211607 500.57478795 271.47384071 500.56716824 C270.4591356 500.56672248 270.4591356 500.56672248 269.42393139 500.56626771 C263.9309139 500.5638189 258.43789649 500.56120725 252.94487908 500.55858358 C231.52116566 500.54848216 210.09753062 500.55683605 188.67382812 500.58007812 C164.58933858 500.60616471 140.50490773 500.6189454 116.42039907 500.61189038 C103.6735582 500.60839766 90.92678168 500.61063373 78.17995071 500.6281414 C67.32888468 500.64286052 56.47792833 500.64350252 45.62686445 500.62607049 C40.09221136 500.61755583 34.55775423 500.61542254 29.02311134 500.63072205 C23.9525953 500.64456488 18.88244319 500.63981091 13.81194822 500.62048281 C11.98162957 500.61672129 10.1512818 500.61964912 8.32098909 500.63009446 C-5.64743486 500.70411727 -17.28361857 499.76553558 -27.72949219 489.45336914 C-37.75475141 478.05843504 -37.23034162 461.4972477 -37.16903687 447.15501404 C-37.17250009 445.3744044 -37.17726909 443.59379692 -37.1832186 441.81319386 C-37.19566682 436.95578518 -37.18958654 432.0985548 -37.18025994 427.24114573 C-37.17344438 421.98886676 -37.18396304 416.73661747 -37.19219971 411.48434448 C-37.20551227 401.20945283 -37.20267043 390.93462706 -37.19396178 380.65973287 C-37.18717626 372.30681638 -37.18627228 363.9539183 -37.18953323 355.60099983 C-37.18999293 354.41046939 -37.19045263 353.21993896 -37.19092626 351.99333184 C-37.19188547 349.57452082 -37.19285811 347.1557098 -37.19384404 344.73689879 C-37.20239058 322.07685779 -37.19257515 299.41685326 -37.17644294 276.75681824 C-37.16303871 257.32728115 -37.16537016 237.89779784 -37.17919922 218.46826172 C-37.19526504 195.88566375 -37.20156849 173.30309769 -37.19236243 150.72049481 C-37.19140681 148.31107494 -37.1904637 145.90165506 -37.18953323 143.49223518 C-37.18907041 142.30686274 -37.18860758 141.1214903 -37.18813073 139.90019749 C-37.18554398 131.55997225 -37.18990501 123.21976731 -37.19697189 114.87954521 C-37.20539814 104.71189719 -37.203083 94.54431862 -37.18712966 84.37667852 C-37.1792624 79.19227468 -37.17612903 74.00798651 -37.18607712 68.8235836 C-37.19505639 64.07211197 -37.19003813 59.32086258 -37.17414446 54.56941093 C-37.17081033 52.8562873 -37.17245968 51.14314465 -37.17977183 49.43003338 C-37.23444562 35.54948622 -36.75189717 21.05503666 -27.03808594 10.14868164 C-19.50804376 2.9678148 -10.24043706 -0.01868693 0 0 Z M42.16113281 268.26196289 C36.88698802 274.6608218 34.97449225 280.5220312 34.93103027 288.87284851 C34.92508803 289.51556397 34.91914578 290.15827942 34.91302347 290.82047111 C34.8958085 292.95426156 34.89264675 295.08782554 34.88964844 297.22167969 C34.88038073 298.75987722 34.8703299 300.2980702 34.85955811 301.83625793 C34.83341461 306.00180393 34.82044072 310.16728561 34.81153679 314.33290076 C34.80565823 316.94032947 34.79744545 319.54774093 34.78852844 322.1551609 C34.76120573 330.32758487 34.74185929 338.49996901 34.73412466 346.67243546 C34.72517026 356.07975263 34.69009577 365.4864876 34.63212347 374.89362782 C34.58877382 382.18308007 34.56870996 389.47236921 34.56604242 396.76194888 C34.56395453 401.10744948 34.55231716 405.4524018 34.5164032 409.79776573 C34.48323887 413.8897525 34.47922621 417.98078483 34.49668121 422.07285881 C34.4982113 423.56591617 34.4896781 425.05902702 34.46976471 426.55195236 C34.33672765 437.15653311 35.98237179 445.92164643 43.02065277 454.25510693 C51.63508638 462.5019218 61.33410026 463.70479767 72.82382202 463.63491821 C74.1809681 463.64096958 75.53810735 463.64875272 76.8952347 463.65810335 C80.60071081 463.6785742 84.30579798 463.67432299 88.01130533 463.66574216 C92.01689173 463.66079133 96.02238643 463.67885613 100.02793884 463.69381714 C107.8659618 463.7192699 115.70384759 463.72290373 123.54190491 463.71821661 C129.91505359 463.71464544 136.28816075 463.71815987 142.66130447 463.7266655 C144.02371588 463.72845106 144.02371588 463.72845106 145.41365076 463.7302727 C147.25901965 463.73269629 149.10438853 463.73512456 150.94975741 463.73755746 C168.2418532 463.75929253 185.53387091 463.75499095 202.82597108 463.74278776 C218.63121744 463.73245013 234.43621724 463.75496108 250.24141483 463.7929842 C266.48687096 463.83176561 282.73221052 463.84824875 298.97771323 463.8407377 C308.09167384 463.83691741 317.20542462 463.84185204 326.31934738 463.87016678 C334.07797326 463.89402789 341.83626013 463.89676714 349.59489082 463.87258644 C353.54998777 463.86083206 357.50446515 463.85854351 361.45952034 463.88259125 C365.08697351 463.90438997 368.7132929 463.89801093 372.34069391 463.87006788 C374.26002057 463.86231639 376.17939836 463.8838041 378.09860456 463.90666163 C388.32740046 463.77997901 396.95245636 460.79550368 404.21191406 453.36352539 C411.25314872 444.25109849 411.79598161 434.82211567 411.72949219 423.70898438 C411.73492216 422.17532693 411.74204971 420.64167471 411.75073242 419.10803223 C411.76886338 414.96959054 411.76194136 410.83155071 411.74921608 406.6931026 C411.73903687 402.34780525 411.74849518 398.00254062 411.75476074 393.65724182 C411.76202212 386.36339181 411.75248842 379.06970422 411.73339844 371.77587891 C411.71162438 363.35967739 411.71869093 354.94386344 411.74070406 346.52767128 C411.75889148 339.28234474 411.76140034 332.03713446 411.75094938 324.79179245 C411.74473382 320.47286478 411.74382534 316.15411895 411.75709534 311.83520317 C411.76870237 307.77448114 411.76054037 303.71425603 411.73751831 299.65358734 C411.73225734 298.1689772 411.73369997 296.68432479 411.74256897 295.19973183 C411.80575704 283.54244751 410.17202114 275.52479409 402.13378906 266.90258789 C393.14537198 258.53532158 383.98729393 257.81669723 372.16836548 257.85955811 C370.84974718 257.85643812 369.53112889 257.85331814 368.17255247 257.85010362 C364.52300029 257.84176909 360.87355297 257.84587479 357.22400045 257.85207605 C353.28389374 257.85660512 349.34380493 257.84961446 345.40370178 257.84411621 C337.68861875 257.83522494 329.97357465 257.83714319 322.2584901 257.84294149 C315.98680077 257.84745967 309.71512234 257.84807021 303.44343185 257.84589386 C302.55053711 257.84558739 301.65764236 257.84528093 300.7376902 257.84496517 C298.92372152 257.84432572 297.10975284 257.84367729 295.29578416 257.84301999 C278.28708317 257.83731731 261.27840375 257.84387329 244.26970629 257.85462072 C229.68207204 257.86355311 215.09446962 257.86200665 200.50683594 257.8527832 C183.56177286 257.8420742 166.61672868 257.83786985 149.67166269 257.84400773 C147.8637844 257.84464482 146.0559061 257.84527356 144.2480278 257.84589386 C143.35855151 257.84620241 142.46907522 257.84651096 141.55264509 257.84682886 C135.29102905 257.84855414 129.02942501 257.84564424 122.76781082 257.84093475 C115.13318912 257.83531879 107.49860852 257.83685729 99.86399151 257.84749624 C95.97024255 257.85274379 92.07656207 257.85482539 88.18281364 257.84819794 C84.61495878 257.84221716 81.04723558 257.84554854 77.47939257 257.85615304 C75.58457063 257.85942823 73.68973947 257.85293505 71.79492724 257.84603858 C60.02462031 257.89994729 50.576861 259.44548575 42.16113281 268.26196289 Z " fill="#FEFEFE" transform="translate(36.7880859375,-0.113525390625)"/>
<path d="M0 0 C87.12 0 174.24 0 264 0 C264.0928125 36.815625 264.0928125 36.815625 264.1875 74.375 C264.21481201 82.11501465 264.24212402 89.8550293 264.27026367 97.82958984 C264.28381348 107.3059082 264.28381348 107.3059082 264.28633118 111.74697876 C264.28911786 114.83827214 264.30032714 117.92940982 264.31672668 121.0206604 C264.33741179 124.9725039 264.34345368 128.92412329 264.33921683 132.8760159 C264.34010186 134.32087309 264.34598682 135.76573869 264.35764539 137.21054912 C264.43402273 147.14286317 264.38884842 157.27037679 257.25 164.9375 C256.61578125 165.64777344 255.9815625 166.35804688 255.328125 167.08984375 C250.0593688 171.41269909 245.13315874 172.37504972 238.43771362 172.36749268 C237.70802592 172.37076152 236.97833822 172.37403036 236.22653878 172.37739825 C233.79648066 172.38464354 231.36703246 172.37055389 228.93701172 172.35644531 C227.18635455 172.35723695 225.43569756 172.35933657 223.68504333 172.36264038 C218.92837204 172.36777369 214.17191737 172.35422179 209.41528082 172.33711338 C204.39015102 172.3219848 199.36502302 172.32324848 194.33987427 172.32244873 C185.860986 172.31875234 177.38217845 172.30379777 168.90332031 172.28125 C158.16761654 172.25275075 147.4319789 172.24205713 136.69624138 172.2375679 C127.33472766 172.23351106 117.97322718 172.22099681 108.61172342 172.20722103 C105.67619642 172.20320571 102.74066982 172.20023805 99.80514145 172.19742584 C86.86958595 172.18277284 73.93498887 172.12380561 61 172 C59.99155438 171.99059828 58.98310877 171.98119656 57.94410419 171.97150993 C51.6814093 171.91022406 45.4194151 171.82868232 39.15731072 171.72290182 C37.17287026 171.6911752 35.18834779 171.66417763 33.20377517 171.64222193 C30.45499897 171.61034193 27.70716249 171.55987937 24.95877075 171.50457764 C24.15237003 171.49882831 23.3459693 171.49307899 22.51513219 171.48715544 C16.01709288 171.32310649 11.28854667 169.97647213 6.25 165.625 C0.97519121 159.47105641 -0.12681244 154.58436794 -0.12025452 146.59025574 C-0.12163201 145.29869914 -0.12300951 144.00714254 -0.12442875 142.67644787 C-0.12088234 141.24678208 -0.11724445 139.81711652 -0.11352539 138.38745117 C-0.11321894 136.8549592 -0.11335274 135.32246708 -0.11389065 133.78997517 C-0.11411619 129.69003172 -0.1083248 125.59011752 -0.10128021 121.49018097 C-0.0955808 117.64144296 -0.09531685 113.79271203 -0.09460449 109.94396973 C-0.08935939 98.69180928 -0.07539822 87.43965427 -0.0625 76.1875 C-0.041875 51.045625 -0.02125 25.90375 0 0 Z M155.70367432 44.63525391 C154.60464747 48.32860946 154.72279863 52.01744495 154.74121094 55.8359375 C154.7377063 56.72742493 154.73420166 57.61891235 154.73059082 58.53741455 C154.72179054 61.48335565 154.72761669 64.42905647 154.734375 67.375 C154.73302786 69.42236375 154.73108692 71.46972719 154.72857666 73.51708984 C154.7256277 77.80764817 154.72991574 82.09812322 154.73925781 86.38867188 C154.75065217 91.8901126 154.74409149 97.39135818 154.73211288 102.89279175 C154.72488815 107.1203763 154.72718505 111.34791454 154.73236847 115.57550049 C154.73370327 117.60410587 154.73206319 119.63271544 154.72740936 121.66131592 C154.72233413 124.4956782 154.73006851 127.32972382 154.74121094 130.1640625 C154.73716248 131.00366516 154.73311401 131.84326782 154.72894287 132.70831299 C154.71283343 138.18399697 154.71283343 138.18399697 157 143 C162.47586379 146.96543568 168.45389773 146.45078675 174.93359375 146.43359375 C176.08489273 146.4388356 177.23619171 146.44407745 178.42237854 146.44947815 C180.85229691 146.45588927 183.28224635 146.45457319 185.7121582 146.44604492 C189.42130022 146.43753716 193.12890068 146.46630825 196.83789062 146.49804688 C199.20312454 146.49965913 201.56836117 146.4990809 203.93359375 146.49609375 C205.59013222 146.51294472 205.59013222 146.51294472 207.28013611 146.53013611 C213.70705186 146.47223149 217.84876242 145.98159694 223 142 C225.74985695 138.21706038 225.28819608 133.84076528 225.2746582 129.36352539 C225.2823246 128.0579644 225.2823246 128.0579644 225.29014587 126.72602844 C225.30404221 123.84983437 225.3030851 120.9738799 225.30078125 118.09765625 C225.3046681 116.09752819 225.30900274 114.09740095 225.31376648 112.09727478 C225.32122874 107.90507329 225.32093731 103.71295601 225.31567383 99.52075195 C225.30987859 94.14937964 225.32681156 88.77835209 225.3500185 83.40703678 C225.36475231 79.27634161 225.36562803 75.14572954 225.36250877 71.01501274 C225.36302214 69.03467564 225.3682628 67.05433391 225.37832069 65.07402229 C225.39066112 62.30441017 225.38390783 59.53547055 225.37231445 56.76586914 C225.37995819 55.94856323 225.38760193 55.13125732 225.39547729 54.28918457 C225.35305307 49.70240455 224.98943063 46.70427552 222 43 C218.91342182 40.00479061 216.72865134 39.6222499 212.48461914 39.61181641 C211.37989761 39.60235992 210.27517609 39.59290344 209.13697815 39.5831604 C207.94837692 39.58923309 206.7597757 39.59530579 205.53515625 39.6015625 C204.30969589 39.59869232 203.08423553 39.59582214 201.82164001 39.59286499 C199.23012836 39.59082354 196.63860132 39.59635895 194.04711914 39.60888672 C190.08119188 39.62492441 186.11628594 39.60904667 182.15039062 39.58984375 C179.63281025 39.59182644 177.11523051 39.59567063 174.59765625 39.6015625 C172.81779076 39.59245346 172.81779076 39.59245346 171.00196838 39.5831604 C169.8940947 39.59261688 168.78622101 39.60207336 167.64477539 39.61181641 C166.67310928 39.61420319 165.70144318 39.61658997 164.70033264 39.61904907 C160.81318957 40.16742994 158.15880091 41.53822713 155.70367432 44.63525391 Z " fill="#FEFEFE" transform="translate(128,0)"/>
<path d="M0 0 C2.53833008 0.02286784 5.07666016 0.04573568 7.61499023 0.06860352 C8.67919189 0.07819092 9.74339355 0.08777832 10.83984375 0.09765625 C16.07492977 10.39552991 21.08586669 20.77070627 25.85205078 31.29394531 C26.86245194 33.52252167 27.8802461 35.74762991 28.8984375 37.97265625 C29.54601011 39.39693672 30.19316269 40.82140826 30.83984375 42.24609375 C31.142854 42.90741302 31.44586426 43.5687323 31.75805664 44.25009155 C33.83984375 48.86804468 33.83984375 48.86804468 33.83984375 51.09765625 C27.89984375 51.09765625 21.95984375 51.09765625 15.83984375 51.09765625 C11.87984375 41.19765625 7.91984375 31.29765625 3.83984375 21.09765625 C0.72136223 27.9583156 -2.25875165 34.69583957 -4.91015625 41.72265625 C-8.03029874 49.96779874 -8.03029874 49.96779874 -9.16015625 51.09765625 C-10.50283038 51.18397499 -11.84989947 51.20472098 -13.1953125 51.1953125 C-14.00419922 51.19208984 -14.81308594 51.18886719 -15.64648438 51.18554688 C-16.49662109 51.17716797 -17.34675781 51.16878906 -18.22265625 51.16015625 C-19.07666016 51.15564453 -19.93066406 51.15113281 -20.81054688 51.14648438 C-22.92711288 51.13465998 -25.0436431 51.11672394 -27.16015625 51.09765625 C-24.5649529 44.40741669 -21.74123236 37.8804391 -18.6484375 31.40625 C-18.23474411 30.53492935 -17.82105072 29.6636087 -17.39482117 28.7658844 C-16.52990684 26.94600457 -15.66350359 25.12683166 -14.7956543 23.30834961 C-13.46198529 20.51278838 -12.13399801 17.71457833 -10.80664062 14.91601562 C-9.9625712 13.14176928 -9.11818196 11.36767505 -8.2734375 9.59375 C-7.8755452 8.75533066 -7.47765289 7.91691132 -7.06770325 7.05308533 C-6.70029526 6.2846077 -6.33288727 5.51613007 -5.9543457 4.72436523 C-5.63109818 4.04615219 -5.30785065 3.36793915 -4.97480774 2.66917419 C-3.52540205 -0.12682763 -3.46095734 0.10695171 0 0 Z " fill="#F4F4F4" transform="translate(150.16015625,310.90234375)"/>
<path d="M0 0 C1.39456452 0.00667256 2.78911118 0.01863093 4.18359375 0.03515625 C5.2499707 0.04192383 5.2499707 0.04192383 6.33789062 0.04882812 C8.09899388 0.06064761 9.86005411 0.07858362 11.62109375 0.09765625 C12.03883057 1.01877197 12.45656738 1.9398877 12.88696289 2.88891602 C14.47224879 6.3839148 16.05861247 9.87842358 17.64526367 13.37280273 C18.32523448 14.87072103 19.0049324 16.36876325 19.68432617 17.86694336 C20.67420658 20.04966262 21.66512268 22.23190919 22.65625 24.4140625 C23.14649155 25.49550034 23.14649155 25.49550034 23.64663696 26.5987854 C25.29445206 30.22363341 26.9641655 33.83561551 28.67919922 37.42919922 C29.00528671 38.11521713 29.33137421 38.80123505 29.66734314 39.50804138 C30.2851392 40.80364753 30.90774397 42.09697534 31.53590393 43.3875885 C32.8621628 46.17209804 33.62109375 47.96754584 33.62109375 51.09765625 C28.01109375 51.09765625 22.40109375 51.09765625 16.62109375 51.09765625 C13.31945637 44.73670349 10.54835261 38.24283947 7.87109375 31.59765625 C7.45988281 30.58445312 7.04867187 29.57125 6.625 28.52734375 C5.62082226 26.05192886 4.61959283 23.57536588 3.62109375 21.09765625 C3.26281494 21.97091553 2.90453613 22.8441748 2.53540039 23.74389648 C1.20862164 26.97437985 -0.12038382 30.2039279 -1.45092773 33.43286133 C-2.02702382 34.83223042 -2.60222216 36.23196944 -3.17651367 37.63208008 C-4.00074937 39.64111016 -4.8281737 41.64880042 -5.65625 43.65625 C-6.15374756 44.86595459 -6.65124512 46.07565918 -7.16381836 47.32202148 C-8.37890625 50.09765625 -8.37890625 50.09765625 -9.37890625 51.09765625 C-10.72158038 51.18397499 -12.06864947 51.20472098 -13.4140625 51.1953125 C-14.22294922 51.19208984 -15.03183594 51.18886719 -15.86523438 51.18554688 C-16.71537109 51.17716797 -17.56550781 51.16878906 -18.44140625 51.16015625 C-19.29541016 51.15564453 -20.14941406 51.15113281 -21.02929688 51.14648438 C-23.14586288 51.13465998 -25.2623931 51.11672394 -27.37890625 51.09765625 C-22.25900164 39.32023989 -16.88352901 27.66626808 -11.44140625 16.03515625 C-11.10108368 15.30594971 -10.76076111 14.57674316 -10.41012573 13.82543945 C-9.43469618 11.73664675 -8.45617009 9.64933597 -7.4765625 7.5625 C-7.17896027 6.92473129 -6.88135803 6.28696259 -6.57473755 5.62986755 C-3.97680309 0.11493651 -3.97680309 0.11493651 0 0 Z " fill="#F4F4F4" transform="translate(285.37890625,310.90234375)"/>
<path d="M0 0 C5.03060064 3.20129132 7.36651698 5.87019718 8.75 11.75 C8.82522969 14.08212027 8.84325876 16.4185311 8.75 18.75 C6.11 18.75 3.47 18.75 0.75 18.75 C0.09 15.45 -0.57 12.15 -1.25 8.75 C-5.27040985 8.05415983 -8.33263419 7.5799903 -12.25 8.75 C-15.26434057 29.89111832 -8.46164337 50.47066889 -2.90234375 70.66015625 C-0.91083564 78.09817587 0.13194187 85.15815622 0.25 92.875 C0.26861084 93.6575415 0.28722168 94.44008301 0.30639648 95.24633789 C0.24418735 100.84093234 -1.01786713 104.16488128 -4.25 108.75 C-9.41670612 113.53309917 -16.04087711 113.10210846 -22.6875 112.890625 C-23.533125 112.84421875 -24.37875 112.7978125 -25.25 112.75 C-25.25 110.11 -25.25 107.47 -25.25 104.75 C-24.50234375 104.72421875 -23.7546875 104.6984375 -22.984375 104.671875 C-21.99953125 104.61515625 -21.0146875 104.5584375 -20 104.5 C-19.02546875 104.45359375 -18.0509375 104.4071875 -17.046875 104.359375 C-13.48797378 103.58397194 -12.31936777 102.74817702 -10.25 99.75 C-9.77175147 97.0078347 -9.58463789 94.80651637 -9.625 92.0625 C-9.63120361 91.28503418 -9.63740723 90.50756836 -9.64379883 89.70654297 C-10.03351695 78.4321623 -13.33572783 67.58140727 -16.25 56.75 C-26.71126408 17.3947383 -26.71126408 17.3947383 -20.625 4.75 C-15.38852122 -1.86449951 -7.63921366 -2.9381591 0 0 Z " fill="#F4F4F4" transform="translate(399.25,322.25)"/>
<path d="M0 0 C-0.33 1.65 -0.66 3.3 -1 5 C-1.90492187 5.12955078 -1.90492187 5.12955078 -2.828125 5.26171875 C-6.81951978 5.9634317 -9.36945696 6.43412804 -12.4375 9.1875 C-16.49516407 16.49129532 -16.33570846 23.62919625 -16.3125 31.8125 C-16.32861328 32.93720703 -16.34472656 34.06191406 -16.36132812 35.22070312 C-16.38989923 46.66628412 -16.38989923 46.66628412 -11.55078125 56.72705078 C-9.41678841 58.47872563 -7.51459673 58.73130185 -4.8125 59.1875 C-3.46091797 59.42533203 -3.46091797 59.42533203 -2.08203125 59.66796875 C-1.39496094 59.77753906 -0.70789063 59.88710938 0 60 C0 61.65 0 63.3 0 65 C-8.45022746 64.68932987 -15.22178047 63.77821953 -21.375 57.625 C-28.08205302 46.79052974 -27.38696209 29.52334861 -25.25 17.25 C-23.84487556 11.64901785 -21.75612757 7.47674364 -17.25 3.6875 C-11.60514782 0.75651906 -6.3768198 -0.31884099 0 0 Z " fill="#F4F4F4" transform="translate(119,377)"/>
<path d="M0 0 C6.98469948 0.25679042 13.24139812 0.72529317 19 5 C24.29283957 11.26783633 25.33949231 18.56926734 25.75 26.5 C25.79092773 27.27956055 25.83185547 28.05912109 25.87402344 28.86230469 C26.30730245 39.8550845 25.68482171 50.50169891 19.0625 59.6875 C13.5986156 63.81329026 6.76583018 65 0 65 C0 63.35 0 61.7 0 60 C0.67546875 59.92523438 1.3509375 59.85046875 2.046875 59.7734375 C7.87731608 58.93703313 7.87731608 58.93703313 12.5 55.5 C17.68944901 43.39128565 18.32093921 25.53574806 14 13 C12.71664456 9.40715233 12.71664456 9.40715233 10 7 C6.70167983 5.93167617 3.44075645 5.38084709 0 5 C0 3.35 0 1.7 0 0 Z " fill="#F4F4F4" transform="translate(324,377)"/>
<path d="M0 0 C0.804375 -0.00128906 1.60875 -0.00257813 2.4375 -0.00390625 C3.283125 -0.00003906 4.12875 0.00382812 5 0.0078125 C6.2684375 0.00201172 6.2684375 0.00201172 7.5625 -0.00390625 C8.366875 -0.00261719 9.17125 -0.00132812 10 0 C10.7425 0.00112793 11.485 0.00225586 12.25 0.00341797 C14 0.1328125 14 0.1328125 15 1.1328125 C15.08669432 2.6215311 15.10703494 4.1142575 15.09765625 5.60546875 C15.09515869 6.41508057 15.09266113 7.22469238 15.09008789 8.05883789 C15.08098389 9.09387451 15.07187988 10.12891113 15.0625 11.1953125 C15.041875 14.4746875 15.02125 17.7540625 15 21.1328125 C8.4 21.1328125 1.8 21.1328125 -5 21.1328125 C-5.020625 17.8534375 -5.04125 14.5740625 -5.0625 11.1953125 C-5.071604 10.16027588 -5.08070801 9.12523926 -5.09008789 8.05883789 C-5.09383423 6.84442017 -5.09383423 6.84442017 -5.09765625 5.60546875 C-5.10289307 4.77281494 -5.10812988 3.94016113 -5.11352539 3.08227539 C-4.90484338 -0.50122101 -3.13380828 0.00476056 0 0 Z " fill="#F5F5F5" transform="translate(240,392.8671875)"/>
<path d="M0 0 C6.27 0 12.54 0 19 0 C19 6.93 19 13.86 19 21 C12.73 21 6.46 21 0 21 C0 14.07 0 7.14 0 0 Z " fill="#F5F5F5" transform="translate(188,393)"/>
</svg>
