<?xml version="1.0" encoding="UTF-8"?>
<svg version="1.1" xmlns="http://www.w3.org/2000/svg" width="519" height="500">
<path d="M0 0 C1.52840933 0.00748227 3.05682841 0.01316577 4.58525085 0.01715088 C8.56216022 0.03225148 12.53846311 0.07139336 16.51513672 0.1159668 C20.59138795 0.15726082 24.66773946 0.17523391 28.74414062 0.1953125 C36.70860826 0.23790736 44.67258757 0.305963 52.63671875 0.390625 C52.6391071 1.18777766 52.64149546 1.98493032 52.64395618 2.80623913 C52.70321909 22.24685971 52.77884101 41.68735456 52.87243366 61.127841 C52.91730516 70.52930769 52.95673956 79.93073723 52.9831543 89.33227539 C53.00620462 97.53135462 53.03968059 105.73031543 53.08542031 113.92930061 C53.10925809 118.26634276 53.1280485 122.60326832 53.13433266 126.94037437 C53.14042658 131.03211868 53.16057964 135.12356502 53.19099426 139.21519852 C53.19970607 140.70778259 53.2035115 142.20040571 53.20172691 143.69301414 C53.18755302 161.03568657 56.39410588 174.37103765 68.37109375 187.28515625 C77.62920254 195.88881252 88.91632678 200.40430969 101.48730469 200.59594727 C103.27730644 200.62582733 103.27730644 200.62582733 105.10346985 200.65631104 C106.44267444 200.67348345 107.78188261 200.690378 109.12109375 200.70703125 C110.57793926 200.72808229 112.03478224 200.74930856 113.49162292 200.77069092 C118.4565557 200.84068503 123.42160561 200.89764326 128.38671875 200.953125 C129.67924498 200.96797251 129.67924498 200.96797251 130.99788284 200.98311996 C168.94926789 201.41600176 206.90466882 201.58447073 244.85830879 201.66544247 C246.60569385 201.66919109 248.35307887 201.6729527 250.10046387 201.67672729 C250.9647623 201.67858734 251.82906072 201.68044739 252.71955001 201.68236381 C258.82825953 201.69650937 264.93687576 201.72100078 271.04553223 201.74978638 C278.60383428 201.78518051 286.16201222 201.80583198 293.7203992 201.80855215 C297.64230158 201.81032603 301.56391238 201.81851505 305.48573875 201.84395599 C309.13112256 201.86733884 312.77604076 201.87147493 316.42148066 201.8613137 C318.36212266 201.86062646 320.30274179 201.8795652 322.24328232 201.89942265 C335.11282604 201.82389516 345.69950043 198.67164027 355.63671875 190.390625 C356.70019531 189.53017578 356.70019531 189.53017578 357.78515625 188.65234375 C366.96467418 180.4400164 371.12262206 169.33591737 372.63671875 157.390625 C372.92667396 152.16966253 372.94829868 146.95670014 372.95556641 141.72973633 C372.96488338 140.18133023 372.97505463 138.63292908 372.98600769 137.08453369 C373.01312256 132.9138409 373.02840166 128.74318154 373.04143572 124.57242417 C373.05714798 120.20153903 373.08391206 115.83072133 373.10946655 111.45988464 C373.15611181 103.19773134 373.19292456 94.93556515 373.22613943 86.67334813 C373.26446198 77.26089651 373.31384535 67.84851288 373.36412358 58.43611872 C373.46723126 39.08767068 373.55655999 19.73918105 373.63671875 0.390625 C375.87625774 0.3685986 378.11585944 0.35288807 380.35546875 0.33984375 C381.60263672 0.33041748 382.84980469 0.32099121 384.13476562 0.3112793 C393.46907922 0.52277204 400.16803235 3.744842 406.63671875 10.390625 C408.69549344 12.47765276 410.76021909 14.55876626 412.82421875 16.640625 C413.62375977 17.45273437 413.62375977 17.45273437 414.43945312 18.28125 C417.26179412 21.19819601 417.26179412 21.19819601 420.63671875 23.390625 C420.63671875 24.050625 420.63671875 24.710625 420.63671875 25.390625 C421.29671875 25.390625 421.95671875 25.390625 422.63671875 25.390625 C423.79594532 26.48736767 424.94478308 27.59644462 426.05032349 28.74728394 C427.8920158 30.65508628 429.78689496 32.50053096 431.68920898 34.34790039 C435.92319261 38.47414564 440.13802562 42.61941957 444.34692383 46.77124023 C446.15795312 48.55211543 447.9743335 50.32756601 449.79614258 52.09741211 C452.44378217 54.67163278 455.07099139 57.26531731 457.6953125 59.86328125 C458.50173691 60.63873795 459.30816132 61.41419464 460.13902283 62.21315002 C469.26562801 71.33434307 473.38944412 80.26778452 473.43451709 93.23136008 C473.42085938 94.74161696 473.40663072 96.25186876 473.39189148 97.76211548 C473.3980991 99.39465296 473.40692358 101.02718221 473.41811687 102.65969312 C473.44110573 107.11716624 473.42697645 111.57384683 473.40640771 116.03130293 C473.39071975 120.84936736 473.40971998 125.6673159 473.42420959 130.48536682 C473.44699611 139.91203703 473.43758327 149.33841009 473.41670873 158.76507427 C473.40040489 166.42729117 473.39623003 174.08942714 473.40067482 181.75165939 C473.4013055 182.84341398 473.40193617 183.93516856 473.40258596 185.06000661 C473.40393205 187.27806591 473.40531162 189.49612519 473.40672431 191.71418445 C473.41865164 212.49617348 473.39461837 233.27799983 473.35770623 254.05995183 C473.32680607 271.8844265 473.32444763 289.70871405 473.34350586 307.53320312 C473.36562627 328.24542421 473.37175529 348.95754046 473.35118324 369.66976678 C473.34902035 371.87891855 473.34687125 374.08807034 473.3447361 376.29722214 C473.34366973 377.38409872 473.34260337 378.4709753 473.34150469 379.59078754 C473.33504024 387.24311709 473.33979547 394.89539261 473.3487606 402.54771805 C473.35930446 411.87417768 473.35176858 421.20041796 473.32130482 430.52683713 C473.30619437 435.28359731 473.29898907 440.0400115 473.31349564 444.79678154 C473.32654473 449.15420957 473.31636825 453.51095324 473.2879369 457.86830239 C473.28167596 459.4414519 473.28376157 461.01466237 473.29520734 462.5877827 C473.36410372 472.90380001 472.26263115 480.78631926 465.53125 488.94140625 C457.17386395 496.0130406 449.08412112 500.54712666 438.01781368 500.52484608 C436.83694212 500.52837442 436.83694212 500.52837442 435.63221458 500.53197405 C432.97215751 500.53867531 430.31214916 500.53820548 427.65208435 500.53779602 C425.73446438 500.54109395 423.81684511 500.54481937 421.89922673 500.5489375 C416.61217647 500.5589738 411.32513757 500.56267692 406.03807914 500.56532681 C400.34258596 500.56922507 394.64710181 500.57880377 388.95161438 500.58753967 C375.18777349 500.60731827 361.42393184 500.61737234 347.66008028 500.62626746 C341.18160539 500.63064833 334.70313131 500.63601568 328.22465706 500.64125633 C306.69373304 500.65827047 285.16281032 500.67278989 263.63188076 500.68000507 C262.23916777 500.68047983 260.84645478 500.68095572 259.45374179 500.68143274 C258.41774695 500.6817873 258.41774695 500.6817873 257.36082292 500.68214903 C253.86156098 500.68335023 250.36229904 500.68456568 246.86303711 500.68579102 C246.16859666 500.68603117 245.47415622 500.68627132 244.75867212 500.68651874 C222.24675063 500.69441045 199.73488185 500.71783886 177.22298337 500.75034696 C153.42363513 500.78465144 129.62432418 500.80435569 105.8249498 500.80764931 C92.8511409 500.80981588 79.87740946 500.81858587 66.90362358 500.84411049 C55.85508 500.86579686 44.80663267 500.87387806 33.75807022 500.86414371 C28.12041845 500.85959298 22.48296537 500.8615303 16.84534073 500.88090515 C11.68276044 500.89849422 6.52052441 500.89757351 1.35794068 500.88200786 C-0.50822284 500.87962532 -2.37440992 500.88398871 -4.24053735 500.89583651 C-16.78150395 500.9705159 -27.12613613 500.34018577 -36.61328125 491.29296875 C-46.95392064 480.05213978 -46.80456138 465.80262173 -46.74423218 451.34872437 C-46.74769353 449.53470441 -46.7524613 447.72068656 -46.75841391 445.90667307 C-46.77088762 440.94774266 -46.7647701 435.9889864 -46.75545526 431.03005552 C-46.7486503 425.67214014 -46.75915309 420.3142541 -46.76739502 414.9563446 C-46.78071856 404.4709622 -46.7778609 393.9856443 -46.7691571 383.50025938 C-46.76237626 374.97802832 -46.76146556 366.4558153 -46.76472855 357.93358231 C-46.76518825 356.71971183 -46.76564794 355.50584135 -46.76612157 354.25518692 C-46.76708077 351.78909964 -46.76805341 349.32301236 -46.76903935 346.85692509 C-46.77758902 323.74584333 -46.76776536 300.63479731 -46.75163825 277.52372141 C-46.73823207 257.69808806 -46.74056646 237.8725074 -46.75439453 218.046875 C-46.77045196 195.01421893 -46.77676865 171.98159413 -46.76755774 148.94893324 C-46.76660211 146.49263422 -46.76565899 144.03633519 -46.76472855 141.58003616 C-46.76426572 140.37153873 -46.76380289 139.1630413 -46.76332604 137.91792273 C-46.7607369 129.40599169 -46.76510545 120.89408052 -46.77216721 112.38215256 C-46.78058405 102.00905709 -46.77829799 91.63602973 -46.76232497 81.26294206 C-46.75444533 75.97158544 -46.75134559 70.68034234 -46.76127243 65.38898659 C-46.77022581 60.5432219 -46.76527576 55.69767574 -46.74933977 50.85193081 C-46.74599476 49.10111593 -46.74767973 47.35028251 -46.75496714 45.5994796 C-46.80809009 31.77379842 -45.59354636 19.14702578 -35.65234375 8.5703125 C-25.58894768 0.12045673 -12.49254538 -0.18253392 0 0 Z M23.76171875 220.140625 C22.72132446 220.52686035 22.72132446 220.52686035 21.65991211 220.92089844 C7.76703685 226.2693745 -4.17097376 234.28359012 -10.5234375 248.1640625 C-12.26507834 252.78143588 -12.51172907 256.99250645 -12.51045227 261.90359497 C-12.51412896 262.6635813 -12.51780565 263.42356764 -12.52159375 264.20658386 C-12.53261321 266.75507969 -12.53647149 269.30353471 -12.5402832 271.85205078 C-12.54654923 273.67875803 -12.55319615 275.505464 -12.56019592 277.33216858 C-12.58122428 283.33341588 -12.59159797 289.3346634 -12.6015625 295.3359375 C-12.60561068 297.40355314 -12.60972762 299.47116866 -12.61391258 301.53878403 C-12.63296248 311.25428748 -12.64719328 320.96978336 -12.65552455 330.6853019 C-12.66529305 341.89121143 -12.69160338 353.09692323 -12.73202544 364.3027631 C-12.76221314 372.96959668 -12.776996 381.63637366 -12.78030556 390.30325878 C-12.78265324 395.47691109 -12.79157687 400.65035211 -12.81676674 405.82394791 C-12.84009849 410.69461859 -12.84426016 415.56493963 -12.83400536 420.43565178 C-12.83351111 422.21818011 -12.83979866 424.00072595 -12.8535614 425.78320122 C-12.95375652 439.53521824 -11.28005675 450.16899383 -1.36328125 460.390625 C15.64429131 475.60393657 37.42599352 480.54113541 59.64421082 480.53779602 C60.95915144 480.54147271 62.27409206 480.5451494 63.62887937 480.5489375 C67.26856311 480.55891376 70.90823036 480.56266723 74.54792583 480.56532681 C78.47801779 480.56924306 82.40809686 480.57882061 86.33818054 480.58753967 C95.82598608 480.60726966 105.31379262 480.61736711 114.80161354 480.62626746 C119.27742946 480.63065713 123.75324422 480.63602227 128.22905922 480.64125633 C143.12218956 480.65826718 158.01531919 480.67275831 172.90845776 480.68000507 C176.77027068 480.68191476 180.63208359 480.68383512 184.49389648 480.68579102 C185.45365095 480.68627476 186.41340542 480.6867585 187.40224335 480.6872569 C202.92738711 480.69554583 218.45245354 480.72086416 233.97756358 480.75337169 C249.9426985 480.78652596 265.90779423 480.80446148 281.87296373 480.80764931 C290.8262231 480.80980697 299.77936979 480.81844564 308.73259544 480.84411049 C316.36253307 480.86593235 323.99233064 480.87381204 331.62229594 480.86414371 C335.50736804 480.85963162 339.3921519 480.86130196 343.27718353 480.88090515 C371.76170636 481.0165086 399.21598698 479.14836683 421.51171875 459.140625 C429.29523612 450.84202192 431.75630081 440.94343735 431.77043152 429.89616394 C431.77269708 429.16234806 431.77496263 428.42853218 431.77729684 427.67247945 C431.78360425 425.22458923 431.78280958 422.77675484 431.78198242 420.32885742 C431.78497595 418.56919788 431.78837893 416.809539 431.79216003 415.04988098 C431.80098464 410.27705341 431.80333751 405.50424378 431.80397582 400.73140883 C431.80468722 397.74728634 431.80682324 394.76316838 431.80947304 391.77904701 C431.81872148 381.36205379 431.82280857 370.94507336 431.82202148 360.52807617 C431.82142088 350.82830304 431.83197068 341.12858556 431.84776515 331.42882651 C431.86085452 323.09232548 431.86620479 314.7558426 431.86556607 306.41933137 C431.86531149 301.44422436 431.86814078 296.4691668 431.87874413 291.49407005 C431.88844856 286.81304691 431.88848821 282.13212028 431.88122749 277.45109367 C431.88018456 275.73749398 431.8825272 274.02388821 431.88858795 272.31029892 C431.93632758 257.87230743 430.97712683 246.60991479 420.8203125 235.3828125 C413.11260327 228.20611456 403.88614256 223.55157432 394.01171875 220.140625 C393.35123535 219.90657959 392.69075195 219.67253418 392.01025391 219.43139648 C374.43784997 213.72986435 356.35784976 213.9498721 338.09581566 213.99845099 C334.26751539 214.00531769 330.43925409 213.99472304 326.61096191 213.98651123 C319.13565292 213.97325192 311.66043488 213.97601653 304.18512249 213.98474915 C298.10351001 213.99155628 292.02192282 213.99242941 285.94030762 213.9891777 C285.0709293 213.988718 284.20155097 213.98825831 283.30582786 213.98778468 C281.53906663 213.98682539 279.7723054 213.98585275 278.00554419 213.9848669 C261.48341856 213.97633587 244.96134307 213.9861111 228.43922567 214.002268 C214.29800037 214.01566909 200.15684897 214.01334035 186.015625 213.99951172 C169.54795747 213.98341534 153.08033375 213.97715963 136.61265945 213.98634851 C134.85281627 213.98730404 133.09297308 213.98824716 131.33312988 213.9891777 C130.03470551 213.98987194 130.03470551 213.98987194 128.71005034 213.99058021 C122.64388832 213.99315795 116.57775436 213.9888255 110.51159668 213.98173904 C103.1073131 213.97327857 95.70312479 213.97569888 88.29885197 213.99158128 C84.52944771 213.99940336 80.76020162 214.00266082 76.99079895 213.99263382 C49.92059184 213.78875103 49.92059184 213.78875103 23.76171875 220.140625 Z " fill="#FFFFFF" transform="translate(46.36328125,-0.390625)"/>
<path d="M0 0 C87.12 0 174.24 0 264 0 C264.0928125 37.063125 264.0928125 37.063125 264.1875 74.875 C264.21481201 82.66722168 264.24212402 90.45944336 264.27026367 98.48779297 C264.28381348 108.02758789 264.28381348 108.02758789 264.28633118 112.49832153 C264.289118 115.6104478 264.30032788 118.72241942 264.31672668 121.83450317 C264.33741026 125.81285812 264.34345395 129.79099044 264.33921683 133.76939416 C264.34010193 135.22402007 264.34598779 136.67865432 264.35764539 138.13323379 C264.51047862 158.14397114 264.51047862 158.14397114 257.6875 165.4375 C257.13449219 166.05496094 256.58148438 166.67242187 256.01171875 167.30859375 C250.44389261 171.98989223 245.4842097 172.43522342 238.52468872 172.38768005 C237.10438947 172.39575836 237.10438947 172.39575836 235.6553973 172.40399987 C232.48644079 172.41829346 229.31790117 172.41117212 226.14892578 172.40405273 C223.87533228 172.40975558 221.60174164 172.41671951 219.32815552 172.42485046 C213.15457561 172.44280706 206.98113765 172.44160864 200.80753946 172.43590808 C195.65341125 172.43281962 190.49931043 172.43890493 185.34518611 172.44494683 C172.49004646 172.45980239 159.6350065 172.45617167 146.77987073 172.44408352 C135.6243682 172.43415368 124.4690316 172.44708796 113.31355466 172.47101771 C101.85045511 172.49542146 90.38746207 172.50461383 78.92433155 172.49836498 C72.49213662 172.49499342 66.06007875 172.49742382 59.62790298 172.51461601 C53.5785709 172.53007885 47.5295556 172.52613654 41.48023605 172.50731087 C39.26148794 172.5036231 37.0427164 172.50673889 34.82398987 172.51719666 C31.79205429 172.53039503 28.76116918 172.51886853 25.72927856 172.50120544 C24.85397401 172.51081045 23.97866946 172.52041546 23.07684052 172.53031152 C16.34502429 172.44977772 11.15241209 170.66555308 5.9765625 166.2890625 C5.30753906 165.46535156 5.30753906 165.46535156 4.625 164.625 C4.16351563 164.08101562 3.70203125 163.53703125 3.2265625 162.9765625 C0.34245663 158.32892693 -0.2492329 153.77670192 -0.24050903 148.39407349 C-0.24326403 147.08434633 -0.24601902 145.77461918 -0.2488575 144.42520332 C-0.24176508 142.98024535 -0.2344893 141.53528827 -0.22705078 140.09033203 C-0.22643773 138.53769376 -0.22670575 136.98505493 -0.2277813 135.43241692 C-0.22823194 131.28277267 -0.21665867 127.13324428 -0.20256042 122.98362732 C-0.19115208 119.08665612 -0.19063318 115.18971279 -0.18920898 111.29272461 C-0.17872347 99.90346779 -0.15080107 88.51423242 -0.125 77.125 C-0.08375 51.67375 -0.0425 26.2225 0 0 Z M155.70367432 44.63525391 C154.60464747 48.32860946 154.72279863 52.01744495 154.74121094 55.8359375 C154.7377063 56.72742493 154.73420166 57.61891235 154.73059082 58.53741455 C154.72179054 61.48335565 154.72761669 64.42905647 154.734375 67.375 C154.73302786 69.42236375 154.73108692 71.46972719 154.72857666 73.51708984 C154.7256277 77.80764817 154.72991574 82.09812322 154.73925781 86.38867188 C154.75065217 91.8901126 154.74409149 97.39135818 154.73211288 102.89279175 C154.72488815 107.1203763 154.72718505 111.34791454 154.73236847 115.57550049 C154.73370327 117.60410587 154.73206319 119.63271544 154.72740936 121.66131592 C154.72233413 124.4956782 154.73006851 127.32972382 154.74121094 130.1640625 C154.73716248 131.00366516 154.73311401 131.84326782 154.72894287 132.70831299 C154.71283343 138.18399697 154.71283343 138.18399697 157 143 C162.47586379 146.96543568 168.45389773 146.45078675 174.93359375 146.43359375 C176.08489273 146.4388356 177.23619171 146.44407745 178.42237854 146.44947815 C180.85229691 146.45588927 183.28224635 146.45457319 185.7121582 146.44604492 C189.42130022 146.43753716 193.12890068 146.46630825 196.83789062 146.49804688 C199.20312454 146.49965913 201.56836117 146.4990809 203.93359375 146.49609375 C205.59013222 146.51294472 205.59013222 146.51294472 207.28013611 146.53013611 C213.70705186 146.47223149 217.84876242 145.98159694 223 142 C225.74985695 138.21706038 225.28819608 133.84076528 225.2746582 129.36352539 C225.2823246 128.0579644 225.2823246 128.0579644 225.29014587 126.72602844 C225.30404221 123.84983437 225.3030851 120.9738799 225.30078125 118.09765625 C225.3046681 116.09752819 225.30900274 114.09740095 225.31376648 112.09727478 C225.32122874 107.90507329 225.32093731 103.71295601 225.31567383 99.52075195 C225.30987859 94.14937964 225.32681156 88.77835209 225.3500185 83.40703678 C225.36475231 79.27634161 225.36562803 75.14572954 225.36250877 71.01501274 C225.36302214 69.03467564 225.3682628 67.05433391 225.37832069 65.07402229 C225.39066112 62.30441017 225.38390783 59.53547055 225.37231445 56.76586914 C225.37995819 55.94856323 225.38760193 55.13125732 225.39547729 54.28918457 C225.35325181 49.72389089 225.04574922 46.64222868 222 43 C218.45533228 40.29280415 215.88115537 39.62290652 211.46289062 39.61181641 C210.37826538 39.60235992 209.29364014 39.59290344 208.17614746 39.5831604 C207.0145813 39.58923309 205.85301514 39.59530579 204.65625 39.6015625 C203.45440063 39.59869232 202.25255127 39.59582214 201.01428223 39.59286499 C198.47582528 39.59082549 195.93735258 39.59634731 193.39892578 39.60888672 C189.51429082 39.62494094 185.63069636 39.60903305 181.74609375 39.58984375 C179.27864354 39.5918262 176.81119397 39.59566991 174.34375 39.6015625 C172.60140076 39.59245346 172.60140076 39.59245346 170.82385254 39.5831604 C169.19691467 39.59734512 169.19691467 39.59734512 167.53710938 39.61181641 C166.58622437 39.61420319 165.63533936 39.61658997 164.65563965 39.61904907 C160.79510649 40.17284171 158.14192891 41.55951036 155.70367432 44.63525391 Z " fill="#FFFFFF" transform="translate(128,0)"/>
<path d="M0 0 C10.83994066 8.99439304 15.01061192 22.1006576 16.99609375 35.65625 C18.53759635 66.51199376 16.47328839 97.53819598 -4.37890625 122.03125 C-15.74572813 133.97899975 -29.71709402 139.15526455 -46.00390625 140.65625 C-47.65390625 140.65625 -49.30390625 140.65625 -51.00390625 140.65625 C-51.00390625 135.70625 -51.00390625 130.75625 -51.00390625 125.65625 C-48.77640625 125.45 -46.54890625 125.24375 -44.25390625 125.03125 C-32.58953972 123.62755906 -22.89321879 118.41201883 -15.00390625 109.65625 C0.42811509 89.70373756 3.17105731 61.71400547 0.76171875 37.27929688 C-0.61364721 27.37123285 -2.93955689 17.18453281 -11.00390625 10.65625 C-16.3449335 6.96839785 -21.73333007 6.88133505 -28.00390625 7.65625 C-33.07981637 9.01954343 -36.06822956 11.26872092 -38.94140625 15.65625 C-42.56077006 21.93799329 -42.93371646 28.81100049 -41.578125 35.875 C-39.88464683 41.27750705 -36.8644494 44.77758883 -32.00390625 47.65625 C-28.68389609 48.93876121 -25.47335779 49.8007688 -22.00390625 50.65625 C-22.00390625 54.94625 -22.00390625 59.23625 -22.00390625 63.65625 C-31.835471 64.29743901 -40.52183723 61.02780785 -48.00390625 54.65625 C-56.11913691 46.28889566 -58.53933842 38.16859209 -58.41943359 26.67504883 C-58.02740416 16.423359 -54.73838255 9.25821466 -47.640625 1.890625 C-33.81145961 -9.82831219 -14.65914685 -10.66119771 0 0 Z " fill="#FFFFFF" transform="translate(448.00390625,289.34375)"/>
<path d="M0 0 C0.91652344 0.01160156 1.83304688 0.02320313 2.77734375 0.03515625 C3.69644531 0.04417969 4.61554688 0.05320312 5.5625 0.0625 C6.27277344 0.07410156 6.98304687 0.08570313 7.71484375 0.09765625 C8.32404663 1.1657251 8.32404663 1.1657251 8.94555664 2.25537109 C18.82062239 19.56407078 28.7403182 36.8460638 38.71484375 54.09765625 C35.92810009 56.3283295 33.24507074 57.88623592 29.96484375 59.28515625 C29.165625 59.62933594 28.36640625 59.97351563 27.54296875 60.328125 C26.63804687 60.70904297 26.63804687 60.70904297 25.71484375 61.09765625 C20.05094269 50.47157639 14.5009048 39.79243639 9.08984375 29.03515625 C8.55713867 27.98263672 8.02443359 26.93011719 7.47558594 25.84570312 C6.98477539 24.86537109 6.49396484 23.88503906 5.98828125 22.875 C5.54919434 22.00093506 5.11010742 21.12687012 4.65771484 20.22631836 C3.71484375 18.09765625 3.71484375 18.09765625 3.71484375 16.09765625 C1.30844194 18.29059544 -0.11136717 20.38328193 -1.5534668 23.29370117 C-1.97367599 24.13434616 -2.39388519 24.97499115 -2.826828 25.84111023 C-3.27069351 26.7443251 -3.71455902 27.64753998 -4.171875 28.578125 C-4.6337471 29.50611404 -5.0956192 30.43410309 -5.57148743 31.39021301 C-7.04420218 34.35242413 -8.50851334 37.31870044 -9.97265625 40.28515625 C-10.97015213 42.2951954 -11.9681925 44.30496445 -12.96679688 46.31445312 C-15.41257722 51.23907646 -17.85082934 56.1673619 -20.28515625 61.09765625 C-24.24515625 59.44765625 -28.20515625 57.79765625 -32.28515625 56.09765625 C-32.28515625 51.73867124 -31.58830598 50.35887995 -29.49609375 46.64453125 C-28.89039551 45.56091309 -28.28469727 44.47729492 -27.66064453 43.36083984 C-26.99415081 42.18958755 -26.32731368 41.01853061 -25.66015625 39.84765625 C-24.98369581 38.64693794 -24.30775758 37.44592528 -23.63232422 36.24462891 C-3.27790117 0.14008125 -3.27790117 0.14008125 0 0 Z " fill="#FFFFFF" transform="translate(112.28515625,287.90234375)"/>
<path d="M0 0 C3.63 0 7.26 0 11 0 C11.84820312 1.52625 12.69640625 3.0525 13.5703125 4.625 C20.40781276 16.89710866 27.3300648 29.10411193 34.46728516 41.20507812 C37.13489153 45.7397749 39.73963108 50.24763425 42 55 C40.421924 55.84324672 38.8372958 56.67423918 37.25 57.5 C36.36828125 57.9640625 35.4865625 58.428125 34.578125 58.90625 C32 60 32 60 28 60 C25.00369645 54.05797359 22.01358858 48.11286035 19.02783203 42.16552734 C18.01071364 40.14136748 16.9921625 38.11792691 15.97216797 36.09521484 C14.50894738 33.19294738 13.0508462 30.28815855 11.59375 27.3828125 C11.13440063 26.47443634 10.67505127 25.56606018 10.20178223 24.63015747 C9.78134644 23.78943695 9.36091064 22.94871643 8.92773438 22.08251953 C8.55467163 21.34083527 8.18160889 20.599151 7.79724121 19.83499146 C7 18 7 18 7 16 C2.74494347 19.57869217 0.84141747 23.92461635 -1.4765625 28.8515625 C-1.88788422 29.70680511 -2.29920593 30.56204773 -2.72299194 31.44320679 C-4.03162293 34.16674199 -5.32900786 36.89543081 -6.625 39.625 C-7.92958217 42.36097202 -9.23656841 45.09572782 -10.5484314 47.82821655 C-11.3632607 49.52656431 -12.17364868 51.22705147 -12.97915649 52.92984009 C-13.34648895 53.69758759 -13.71382141 54.46533508 -14.09228516 55.25634766 C-14.41331207 55.93267242 -14.73433899 56.60899719 -15.06509399 57.30581665 C-16 59 -16 59 -18 61 C-21.96 59.02 -25.92 57.04 -30 55 C-28.47793731 51.19484326 -26.9255395 47.89531452 -24.9453125 44.34375 C-24.33574707 43.24796631 -23.72618164 42.15218262 -23.09814453 41.02319336 C-22.4405595 39.84872288 -21.78284195 38.67432659 -21.125 37.5 C-20.45282274 36.29508107 -19.78078629 35.09008357 -19.10888672 33.88500977 C-13.47256935 23.78974696 -7.75105106 13.74345672 -1.97705078 3.72631836 C-1.28446537 2.50261236 -0.62882922 1.25765843 0 0 Z " fill="#FFFFFF" transform="translate(297,288)"/>
<path d="M0 0 C8.81452718 2.75453974 14.7779532 9.00449887 19 17 C25.25264296 31.80117827 24.43069852 48.8994938 18.96875 63.81640625 C15.20438869 72.14632739 8.90370674 78.48359615 1 83 C0.34 83 -0.32 83 -1 83 C-3.04169485 80.09451118 -4 78.59857954 -4 75 C-2.84434804 73.84434804 -1.68388647 72.69311638 -0.5 71.56640625 C8.48463315 62.1840159 10.9850046 50.67110945 11 38 C10.22835255 26.70588734 6.22808977 16.9133541 -2 9 C-2.99 8.34 -3.98 7.68 -5 7 C-3.70700306 4.11562221 -2.34058637 2.12780579 0 0 Z " fill="#FFFFFF" transform="translate(354,353)"/>
<path d="M0 0 C2.52588702 2.36292656 3.88820837 3.66462511 5 7 C4.20335937 7.8353125 4.20335937 7.8353125 3.390625 8.6875 C-6.77145374 19.66551207 -10.73081734 31.39610019 -10.34765625 46.47265625 C-9.2393052 57.71806067 -5.23898128 66.68624231 3.375 74 C4.24125 74.66 5.1075 75.32 6 76 C4.35 78.31 2.7 80.62 1 83 C-6.69360841 80.59574737 -12.55255594 75.3890197 -16.6796875 68.578125 C-23.5694754 55.12469301 -24.41873283 38.07755957 -20.03515625 23.6015625 C-16.16919504 13.88559961 -9.54095732 4.77047866 0 0 Z " fill="#FFFFFF" transform="translate(66,353)"/>
<path d="M0 0 C2.89683868 2.2015974 4.39297231 3.78594462 6 7 C6.39231417 11.70777 6.47336758 14.07079697 4.3125 18.3125 C1.41615725 21.67851995 -0.6407554 23.73363367 -5.1796875 24.24609375 C-9.37453365 24.3629993 -12.34131837 24.21549165 -16 22 C-19.13973407 18.29959914 -19.51960504 14.90835841 -19.35546875 10.21875 C-18.79697545 6.73276986 -17.29872629 4.61799384 -15 2 C-10.3831438 -0.90431301 -5.27079086 -0.78866648 0 0 Z " fill="#FFFFFF" transform="translate(251,370)"/>
<path d="M0 0 C2.89683868 2.2015974 4.39297231 3.78594462 6 7 C6.3501723 12.34012755 6.48069602 15.67913597 3 20 C0.72260535 22.55344249 -0.94328062 23.80915436 -4.3359375 24.421875 C-8.77133852 24.66162641 -12.01140074 24.51808636 -15.5625 21.6875 C-18.43218758 18.52348549 -18.93131763 16.91004135 -19.25 12.6875 C-18.91153854 7.69519353 -17.67068881 4.56627076 -14 1.125 C-9.35209268 -0.61796524 -4.89244606 -0.80806166 0 0 Z " fill="#FFFFFF" transform="translate(179,370)"/>
</svg>
